# xmcd
#
# Track frame offsets: 
#        150
#        23092
#        44074
#        63098
#        81941
#        102029
#        120771
#        140446
#        158031
#        178849
#        197963
#        209710
#
# Disc length: 3006 seconds
#
# Revision: 0
# Processed by: cddbd v1.5.2PL0 Copyright (c) Steve Scherf et al.
# Submitted via: ExactAudioCopy v0.95b4
#
DISCID=a40bbc0c
DTITLE=DJ Velvet - Chillout 2
DYEAR=2003
DGENRE=Ambient
TTITLE0=Yellow Notes
TTITLE1=Angel
TTITLE2=Orissa
TTITLE3=Love Attack
TTITLE4=Gypsy Air
TTITLE5=Yatra
TTITLE6=Mid Summer Morning
TTITLE7=Erstwhile
TTITLE8=Three Quarters Back
TTITLE9=Slavonic Dance "Dumka" - Dvorak
TTITLE10=Caesarea
TTITLE11=Touch The Heavenly Light
EXTD=
EXTT0=
EXTT1=
EXTT2=
EXTT3=
EXTT4=
EXTT5=
EXTT6=
EXTT7=
EXTT8=
EXTT9=
EXTT10=
EXTT11=
PLAYORDER=
